<?xml version="1.0" encoding="utf-8"?>
<!-- Generator: Adobe Illustrator 17.0.0, SVG Export Plug-In . SVG Version: 6.00 Build 0)  -->
<!DOCTYPE svg PUBLIC "-//W3C//DTD SVG 1.1//EN" "http://www.w3.org/Graphics/SVG/1.1/DTD/svg11.dtd">
<svg version="1.1" id="Camada_1" xmlns="http://www.w3.org/2000/svg" xmlns:xlink="http://www.w3.org/1999/xlink" x="0px" y="0px"
	 width="1280px" height="188.802px" viewBox="0 0 1280 188.802" enable-background="new 0 0 1280 188.802" xml:space="preserve">
<rect fill="#373435" width="1280" height="196.599"/>
<g id="Roxo">
	<path fill="#FFF212" d="M514.476,87.318c5.49,0,10.042,4.554,10.042,10.043v4.744c0,5.489-4.553,10.042-10.042,10.042h-2.882
		v-2.352h-1.554c-4.2,0-7.69-3.49-7.69-7.691V99.08h2.353v-1.719c0-2.91,2.428-5.338,5.338-5.338h4.436
		c2.911,0,5.337,2.428,5.337,5.339v0.673h-1.307v-0.673c0-2.194-1.837-4.032-4.031-4.032h-4.436c-2.193,0-4.031,1.838-4.031,4.031
		v3.026h-2.353v1.717c0,3.485,2.9,6.385,6.384,6.385h2.861v2.353h1.575c4.772,0,8.736-3.964,8.736-8.737v-4.744
		c0-4.774-3.963-8.737-8.736-8.737h-0.529v-1.307C513.947,87.318,514.476,87.318,514.476,87.318z M510.549,112.149v-1.306h-0.508
		c-4.774,0-8.736-3.963-8.736-8.737v-4.744c0-4.773,3.964-8.737,8.736-8.737h1.554v2.353h2.882c3.484,0,6.383,2.9,6.383,6.384v1.719
		h-2.352v3.026c0,2.194-1.838,4.031-4.031,4.031h-4.436c-2.194,0-4.031-1.837-4.031-4.032v-0.673h-1.307v0.673
		c0,2.911,2.427,5.339,5.338,5.339h4.436c2.909,0,5.337-2.429,5.337-5.338v-1.719h2.353v-3.026c0-4.2-3.489-7.691-7.69-7.691h-1.575
		v-2.353h-2.861c-5.489,0-10.042,4.554-10.042,10.043v4.744c0,5.491,4.552,10.043,10.042,10.043H510.549z M502.35,98.036h1.307
		v-0.673c0-3.484,2.901-6.384,6.384-6.384h0.508v-1.307h-0.508c-4.2,0-7.69,3.491-7.69,7.691L502.35,98.036L502.35,98.036z
		 M522.166,101.433h-1.307v0.673c0,3.483-2.9,6.384-6.383,6.384h-0.529v1.307h0.529c4.2,0,7.69-3.491,7.69-7.691V101.433z"/>
	<path fill="#FFF212" d="M544.02,96.356v15.792h3.659v-1.307h-2.353V92.525l-1.307,1.693V96.356z M547.679,109.797h-1.307v-8.641
		h1.307V109.797z M547.679,100.11h-1.307V89.458l-3.673,4.759h-4.622l5.323-6.898h1.651l-4.315,5.591h1.32l4.315-5.591h1.307
		L547.679,100.11L547.679,100.11z M550.032,112.149v-24.83h-1.307v24.83H550.032z"/>
	<path fill="#FFF212" d="M478.729,100.388c2.938,0,5.357-2.42,5.357-5.358c0-0.221-0.014-0.439-0.04-0.654c-0.794,0-1.589,0-2.384,0
		c-0.305-1.361-1.537-2.353-2.934-2.353h-14.726v1.307h14.726c0.933,0,1.699,0.766,1.699,1.699c0,0.231-0.046,0.452-0.13,0.653
		c0.81,0,1.619,0,2.429,0c-0.317,1.917-1.998,3.398-3.998,3.398h-3.643v1.307H478.729z M474.039,99.08v1.307h-3.591
		c-2,0-3.682,1.482-3.998,3.397c0.809,0,1.618,0,2.428,0c-0.022,0.05-0.123,0.337-0.123,0.648v1.703h17.464v1.307
		c-3.687,0-15.084,0-18.771,0v-2.353c-0.784,0-1.568,0-2.352,0v-0.653c0-2.924,2.425-5.358,5.352-5.358
		C470.447,99.08,474.039,99.08,474.039,99.08z M464.003,87.318h14.726c4.228,0,7.71,3.482,7.71,7.711s-3.482,7.71-7.71,7.71
		c-3.586,0-7.172,0-10.758,0c0.553-0.804,1.488-1.307,2.478-1.307c3.109,0,5.172,0,8.281,0c3.512,0,6.404-2.892,6.404-6.403
		c0-3.513-2.892-6.404-6.404-6.404H465.31v1.046h7.685v1.307h-8.992C464.003,89.758,464.003,88.538,464.003,87.318z M474.039,89.671
		h4.689c2.345,0,4.361,1.541,5.078,3.659h-1.405c-0.648-1.384-2.056-2.352-3.672-2.352h-4.689L474.039,89.671L474.039,89.671z
		 M484.912,110.843v-1.045h-8.782v-1.307h10.089c0,1.22,0,2.439,0,3.659h-21.123v-1.307L484.912,110.843L484.912,110.843z
		 M475.085,109.798v-1.307h-8.683v-2.353h-1.307v3.66C465.096,109.798,475.085,109.798,475.085,109.798z M464.051,112.149h-1.307
		v-7.711c0-4.229,3.477-7.711,7.705-7.711c3.585,0,7.171,0,10.757,0c-0.543,0.788-1.452,1.307-2.475,1.307c-2.76,0-5.521,0-8.281,0
		c-3.509,0-6.394,2.888-6.398,6.397L464.051,112.149L464.051,112.149z"/>
	<path fill="#FFF212" d="M584.979,98.505c5.51,4.57,2.301,13.644-4.921,13.644c-2.05,0-6.713,0-8.763,0
		c-3.988,0-6.751-2.766-7.5-6.011h1.328c0.731,2.615,3.096,4.705,6.172,4.705c2.05,0,6.713,0,8.763,0
		c4.807,0,7.875-5.105,5.691-9.341c-0.697-1.352-1.372-1.872-2.526-2.577l0.04-0.066l-0.026-0.018
		c3.206-4.504-0.103-10.215-5.141-10.215c-0.742,0-4.099,0-4.842,0c-3.036,0-5.444,2.072-6.176,4.705h-1.342
		c0.761-3.31,3.679-6.012,7.518-6.012c0.742,0,4.1,0,4.842,0C583.863,87.318,587.553,93.412,584.979,98.505z M567.947,94.376
		c-0.793,0-1.585,0-2.376,0c-0.121,1.359,0.122,2.779,0.804,4.129c-2.147,1.78-2.97,4.243-2.75,6.588c0.783,0,1.566,0,2.349,0
		c0.132,1.123,0.625,2.227,1.533,3.135c1.334,1.334,2.66,1.57,4.442,1.57h3.204v-1.307h-3.858c-2.675,0-4.365-2.418-4.006-4.705
		c-0.79,0-1.579,0-2.37,0c0.079-0.766,0.3-1.538,0.685-2.284c0.698-1.355,1.372-1.872,2.526-2.577
		c-0.014-0.022-0.027-0.045-0.04-0.066c0.008-0.006,0.017-0.011,0.025-0.018c-0.725-1.017-1.116-2.097-1.231-3.158
		c0.794,0,1.585,0,2.378,0c-0.206-1.202,0.116-2.504,1.13-3.518c0.733-0.733,1.746-1.186,2.864-1.186h1.897v-1.308h-1.897
		C570.275,89.671,568.274,91.902,567.947,94.376z M576.199,89.671v1.307h1.898c1.119,0,2.133,0.455,2.864,1.186
		c0.653,0.652,1.018,1.423,1.141,2.211c-0.812,0-1.623,0-2.435,0c0.215,0.52,0.162,1.128-0.159,1.605
		c-0.312,0.462-0.849,0.747-1.41,0.747c-0.742,0-4.099,0-4.842,0c-0.005-0.006-0.289,0.016-0.639-0.124
		c-0.313-0.127-0.592-0.352-0.778-0.634c-0.188-0.283-0.281-0.612-0.281-0.94c0-0.936,0.762-1.699,1.699-1.699h7.32
		c-0.555-0.806-1.486-1.307-2.479-1.307c-0.741,0-4.099,0-4.842,0c-1.654,0-3.005,1.351-3.005,3.005
		c0,1.654,1.353,3.006,3.005,3.006c0.742,0,4.1,0,4.842,0c1.409,0,2.631-0.991,2.935-2.352c0.796,0,1.594,0,2.39,0
		c0.325-2.936-1.824-6.012-5.323-6.012L576.199,89.671L576.199,89.671z M576.199,108.49v1.307h3.206c1.782,0,3.109-0.237,4.442-1.57
		c0.622-0.623,1.05-1.339,1.299-2.091h-1.42c-0.617,1.337-1.935,2.353-3.668,2.353L576.199,108.49L576.199,108.49z M569.586,96.728
		h-1.428c0.307,0.935,0.892,1.813,1.798,2.522c-1.885,0.486-3.192,1.863-3.735,3.49h1.388c0.192-0.414,0.464-0.808,0.823-1.166
		c1.406-1.406,2.96-1.187,4.824-1.187h1.897v-1.307h-1.897C571.522,99.08,570.203,98.065,569.586,96.728z M576.199,99.08v1.307
		h1.898c1.865,0,3.42-0.219,4.826,1.187c0.653,0.652,1.017,1.424,1.141,2.211c-0.811,0-1.623,0-2.435,0
		c0.223,0.539,0.158,1.172-0.196,1.658c-0.315,0.432-0.834,0.691-1.373,0.694c-2.05,0-6.713,0-8.763,0
		c-0.473-0.003-0.889-0.185-1.202-0.497c-0.001,0-0.002,0-0.002,0c-0.661-0.66-0.661-1.742,0-2.402c0.001,0,0.002,0,0.002,0
		c0.311-0.311,0.737-0.498,1.202-0.498c3.746,0,7.494,0,11.24,0c-0.103-0.15-0.221-0.293-0.354-0.426l0.002-0.001
		c-0.544-0.543-1.299-0.88-2.125-0.88c-2.05,0-6.713,0-8.763,0c-1.655,0-3.006,1.351-3.006,3.006c0,1.653,1.353,3.006,3.006,3.006
		c2.05,0,6.713,0,8.763,0c1.409,0,2.63-0.991,2.934-2.352h2.387c0.295-2.519-1.228-5.133-3.982-5.843
		c0.906-0.709,1.49-1.587,1.796-2.522h-1.429c-0.616,1.337-1.935,2.353-3.668,2.353L576.199,99.08L576.199,99.08z"/>
	<path fill="#FFF212" d="M114.992,49.452h14.821v43.398h-5.294V54.742h-4.235v47.638h-5.293L114.992,49.452L114.992,49.452z
		 M129.812,97.084h-5.294v9.528h-9.527v38.111h-9.528v5.291h14.82v-38.107h9.529v-9.526h48.691l0.003-52.928h-5.293l-0.003,47.633
		H129.812z M105.464,140.489V49.452h5.293v91.036L105.464,140.489L105.464,140.489z M134.047,106.612h53.987v38.111h9.525v5.291
		h-24.345l-0.003-24.345h5.295v19.055h4.232v-32.817h-48.691V106.612z M129.812,121.433v28.58h-5.294V116.14
		c25.573,0,28.414,0,53.985,0v5.293H129.812z M192.265,140.489h5.294V49.452h-14.821v52.928h5.295V54.742h4.232V140.489z"/>
	<polygon fill="#FFF212" points="120.285,150.012 120.285,111.905 129.812,111.905 129.812,102.38 178.503,102.38 178.506,49.452 
		173.214,49.452 173.21,97.084 129.812,97.084 124.519,97.084 124.519,106.612 114.992,106.612 114.992,144.722 105.464,144.722 
		105.464,150.012 	"/>
	<polygon fill="#FFF212" points="197.559,144.722 188.034,144.722 188.034,106.612 134.047,106.612 134.047,111.905 
		182.738,111.905 182.738,144.722 178.506,144.722 178.506,125.667 173.21,125.667 173.214,150.012 197.559,150.012 	"/>
	<path fill="#FFF212" d="M222.64,99.495c0,24.966,18.75,46.441,43.401,49.816v-5.347c-21.73-3.339-38.108-22.4-38.108-44.468V58.91
		h-5.293V99.495z M308.384,96.85V54.671h-9.525v-5.219c4.939,0,9.88,0,14.821,0v50.044c0,0.891-0.031,1.774-0.087,2.648
		c-3.184,0-6.37,0-9.554,0c-1.344,16.03-14.999,28.583-31.117,28.583c-14.523,0-27.293-10.252-30.464-24.348h5.453
		c3.057,11.138,13.387,19.052,25.01,19.052c14.228,0,25.937-11.707,25.937-25.935V96.85C302.032,96.85,305.21,96.85,308.384,96.85z
		 M298.858,92.616h5.291V58.803h-5.291V92.616z M241.695,96.85V49.452h5.291v50.044c0,0.895,0.048,1.779,0.137,2.648
		c-3.19,0-6.378,0-9.565,0c1.355,18.357,16.925,32.814,35.363,32.814c0.891,0,1.773-0.034,2.648-0.097c0,3.183,0,6.365,0,9.548
		c18.554-1.077,34.457-13.715,40.123-30.944c1.516-4.618,2.22-9.099,2.22-13.97V49.451h5.294v50.048
		c0,27.577-22.706,50.28-50.284,50.28c-0.885,0-1.768-0.024-2.645-0.071c0-3.179,0-6.363,0-9.541
		c-21.265-1.364-38.108-19.329-38.108-40.672v-2.645C235.343,96.85,238.519,96.85,241.695,96.85z M232.167,92.616V54.671h-9.527
		v-5.219c4.941,0,9.88,0,14.821,0v43.164L232.167,92.616L232.167,92.616z M307.716,106.378c-2.75,13.988-13.922,25.16-27.913,27.913
		v5.383c16.899-2.876,30.419-16.394,33.293-33.295C313.096,106.378,307.716,106.378,307.716,106.378z"/>
	<path fill="#FFF212" d="M232.167,99.495c0,21.343,16.843,39.308,38.108,40.672c0,3.178,0,6.362,0,9.541
		c0.877,0.047,1.76,0.071,2.645,0.071c27.577,0,50.284-22.705,50.284-50.28V49.452h-5.294v50.044c0,4.871-0.704,9.351-2.22,13.97
		c-5.666,17.23-21.569,29.868-40.123,30.944c0-3.183,0-6.365,0-9.548c-0.875,0.063-1.757,0.096-2.648,0.096
		c-18.438,0-34.007-14.458-35.363-32.814c3.186,0,6.375,0,9.565,0c-0.089-0.869-0.137-1.752-0.137-2.648V49.452h-5.291V96.85
		c-3.176,0-6.352,0-9.528,0L232.167,99.495L232.167,99.495z"/>
	<path fill="#FFF212" d="M242.457,106.378c3.17,14.095,15.94,24.349,30.464,24.349c16.119,0,29.773-12.554,31.117-28.583
		c3.184,0,6.37,0,9.554,0c0.055-0.875,0.087-1.758,0.087-2.648V49.452c-4.941,0-9.881,0-14.821,0v5.219h9.525v42.18
		c-3.173,0-6.352,0-9.525,0v2.644c0,14.228-11.71,25.935-25.937,25.935c-11.623,0-21.953-7.915-25.01-19.052L242.457,106.378
		L242.457,106.378z"/>
	<path fill="#FFF212" d="M432.169,94.757c22.317,18.508,9.336,55.258-19.93,55.258h-46.575v-5.294h46.575
		c19.473,0,31.905-20.668,23.052-37.827c-2.826-5.485-5.553-7.586-10.228-10.436l0.163-0.269l-0.099-0.076
		c12.987-18.24-0.407-41.371-20.826-41.371h-42.87v76.219h-5.293V49.452h48.163C427.654,49.452,442.596,74.13,432.169,94.757z
		 M404.302,97.087h-38.636v38.111h-9.527v14.818h5.293v-9.527h9.528v-38.106h33.343c7.555,0,13.846-0.891,19.541,4.805
		c4.108,4.108,5.411,9.386,4.579,14.248H418.6c-0.515,1.25-1.4,2.311-2.516,3.065c-1.095,0.737-2.406,1.158-3.84,1.168h-27.525
		v5.294h27.524c2.099,0,4.077-0.533,5.8-1.472c1.307-0.709,2.453-1.649,3.417-2.763h11.002v0.024
		c4.555-11.545-1.671-25.596-14.792-28.977c8.403-6.58,10.016-16.753,6.77-25.034h-10.918c-0.996-1.153-2.188-2.117-3.546-2.834
		c-1.695-0.894-3.626-1.4-5.674-1.4h-19.583v5.293h19.583c1.379,0,2.677,0.407,3.769,1.121c1.15,0.757,2.06,1.834,2.59,3.116h9.864
		C421.975,87.297,415.134,97.087,404.302,97.087z M365.665,92.855h5.294V58.979h-5.294V92.855z M404.302,87.562
		c-7.938,0-15.877,0-23.815,0V64.273h23.815c3.63,0,6.988,1.179,9.703,3.176h7.484c-3.767-5.01-9.715-8.469-17.187-8.469h-29.111
		v33.876h29.111c2.677,0,5.157-0.867,7.166-2.333c2.366-1.723,4.077-4.324,4.715-7.195h-5.525c-0.504,1.219-1.358,2.262-2.435,3.011
		C406.277,87.691,404.33,87.533,404.302,87.562z M412.24,135.198h-31.753v-23.291h31.755c1.408,0,2.732,0.426,3.836,1.169
		c1.121,0.754,2.002,1.812,2.521,3.065h5.525c-0.697-3.123-2.643-5.893-5.322-7.607c-1.893-1.214-4.145-1.92-6.56-1.92h-37.052
		v33.873h34.406c7.214,0,12.585-0.954,17.989-6.357c0.677-0.677,1.295-1.381,1.86-2.109h-7.458
		C419.355,133.989,416.045,135.198,412.24,135.198z"/>
	<path fill="#FFF212" d="M365.665,97.087v38.111h-9.528v14.818h5.293v-9.527h9.529v-38.106h33.343
		c7.554,0,13.846-0.891,19.541,4.804c4.108,4.108,5.412,9.386,4.579,14.248h-9.822c-0.515,1.25-1.4,2.311-2.516,3.065
		c-1.095,0.737-2.406,1.158-3.84,1.168h-27.525v5.294h27.524c2.099,0,4.077-0.533,5.8-1.472c1.307-0.709,2.453-1.65,3.417-2.763
		h11.002v0.024c4.555-11.545-1.671-25.596-14.792-28.977c8.403-6.58,10.016-16.754,6.77-25.034h-10.918
		c-0.996-1.153-2.188-2.117-3.546-2.834c-1.695-0.894-3.626-1.4-5.674-1.4h-19.584v5.292h19.584c1.379,0,2.677,0.407,3.769,1.121
		c1.15,0.757,2.059,1.834,2.59,3.116h9.864c1.451,9.26-5.39,19.05-16.223,19.05L365.665,97.087L365.665,97.087z"/>
	<path fill="#FFF212" d="M356.137,49.452v81.512h5.293V54.744h42.871c20.418,0,33.812,23.13,20.826,41.371l0.099,0.077l-0.163,0.269
		c4.676,2.85,7.403,4.951,10.228,10.436c8.853,17.159-3.58,37.827-23.052,37.827h-46.575v5.294h46.575
		c29.266,0,42.248-36.75,19.929-55.258c10.426-20.627-4.515-45.306-27.868-45.306h-48.164V49.452z"/>
	<path fill="#FFF212" d="M375.191,106.615v33.874h34.406c7.214,0,12.585-0.954,17.989-6.358c0.677-0.677,1.295-1.381,1.861-2.108
		h-7.458c-2.632,1.967-5.942,3.176-9.748,3.176h-31.753v-23.291h31.755c1.408,0,2.732,0.426,3.836,1.169
		c1.121,0.754,2.002,1.812,2.521,3.065h5.525c-0.697-3.123-2.643-5.893-5.322-7.607c-1.893-1.214-4.145-1.921-6.56-1.921
		L375.191,106.615L375.191,106.615z"/>
</g>
</svg>
