<?xml version="1.0" encoding="utf-8"?>
<!-- Generator: Adobe Illustrator 17.0.0, SVG Export Plug-In . SVG Version: 6.00 Build 0)  -->
<!DOCTYPE svg PUBLIC "-//W3C//DTD SVG 1.1//EN" "http://www.w3.org/Graphics/SVG/1.1/DTD/svg11.dtd">
<svg version="1.1" id="Camada_1" xmlns="http://www.w3.org/2000/svg" xmlns:xlink="http://www.w3.org/1999/xlink" x="0px" y="0px"
	 width="429.333px" height="220px" viewBox="0 0 429.333 220" enable-background="new 0 0 429.333 220" xml:space="preserve">
<g>
	<g>
		<path fill="#00ACE4" d="M137.038,150.864h22.558c1.686,0,3.053-1.367,3.053-3.053V65.148c0-2.786-3.426-4.116-5.306-2.06
			l-22.558,24.68c-0.514,0.563-0.799,1.297-0.799,2.06v57.983C133.985,149.498,135.352,150.864,137.038,150.864z"/>
		<path fill="#00ACE4" d="M32.454,40.022c-19.822,21.47-19.822,73.825,0,95.294c9.74,10.522,24.763,15.704,45.049,15.549h41.023
			c1.686,0,3.053-1.367,3.053-3.053v-15.748c0-1.686-1.367-3.053-3.053-3.053H77.862c-10.974,0.082-18.905-2.999-23.787-9.958
			c-9.832-13.946-9.832-48.82,0-62.765c4.882-6.959,12.813-10.041,23.787-9.958h40.665c1.686,0,3.053-1.367,3.053-3.053V27.524
			c0-1.686-1.367-3.053-3.053-3.053l-41.023,0.003C57.218,24.32,42.194,29.503,32.454,40.022z"/>
		<path fill="#00ACE4" d="M402.575,87.67c-0.548-0.627-1.125-1.217-1.735-1.769c-6.102-5.521-16.415-8.352-30.931-8.464
			l-35.092-0.271c-5.528-0.043-9.706-1.215-12.47-3.519c-2.789-2.304-4.168-5.74-4.134-10.334c0.046-5.707,1.716-9.85,5.044-12.46
			c3.296-2.608,8.459-4.576,15.513-4.523h64.423c1.686,0,3.053-1.367,3.053-3.053V27.524c0-1.686-1.367-3.053-3.053-3.053h-68.111
			c-15.397-0.12-26.63,2.913-33.73,9.032c-7.102,6.121-10.717,15.868-10.822,29.273c-0.085,10.747,2.343,19.045,7.254,24.894
			c0.547,0.624,1.125,1.215,1.735,1.769c6.102,5.52,16.414,8.351,30.931,8.463l35.092,0.271c5.528,0.042,9.706,1.216,12.47,3.519
			c2.789,2.303,4.168,5.74,4.133,10.334c-0.045,5.707-1.715,9.85-5.043,12.46c-3.297,2.609-8.46,4.575-15.513,4.524h-64.425
			c-1.686,0-3.053,1.367-3.053,3.053v15.751c0,1.686,1.367,3.053,3.053,3.053h68.112c15.398,0.121,26.63-2.912,33.73-9.031
			c7.102-6.121,10.717-15.868,10.822-29.273C409.914,101.816,407.486,93.517,402.575,87.67z"/>
		<path fill="#00ACE4" d="M277.845,85.9c-6.102-5.521-16.416-8.352-30.932-8.464l-35.091-0.271
			c-5.528-0.043-9.706-1.215-12.47-3.519c-2.791-2.304-4.169-5.74-4.134-10.334c0.046-5.707,1.715-9.85,5.044-12.46
			c3.294-2.608,8.459-4.576,15.513-4.523h64.423c1.686,0,3.053-1.367,3.053-3.053V27.524c0-1.686-1.367-3.053-3.053-3.053h-68.112
			c-15.398-0.12-26.63,2.913-33.73,9.032c-7.1,6.121-10.717,15.868-10.821,29.273c-0.084,10.747,2.342,19.045,7.254,24.894
			c0.547,0.624,1.125,1.215,1.734,1.769c6.102,5.52,16.415,8.351,30.932,8.463l35.092,0.271c5.529,0.042,9.705,1.216,12.47,3.519
			c2.788,2.303,4.168,5.74,4.133,10.334c-0.045,5.707-1.715,9.85-5.043,12.46c-3.297,2.609-8.461,4.575-15.513,4.524H174.17
			c-1.686,0-3.053,1.367-3.053,3.053v15.751c0,1.686,1.367,3.053,3.053,3.053h68.112c15.398,0.121,26.629-2.912,33.73-9.031
			c7.102-6.121,10.718-15.868,10.822-29.273c0.082-10.747-2.343-19.046-7.256-24.893C279.031,87.042,278.454,86.453,277.845,85.9z"
			/>
		<path fill="#00ACE4" d="M133.985,25.738l23.352,25.699c1.877,2.065,5.312,0.738,5.312-2.053v-21.86
			c0-1.686-1.367-3.053-3.053-3.053h-25.611V25.738z"/>
	</g>
	<g>
		<path fill="#939598" d="M71.966,184.369v14.032c-0.43,0.251-0.859,0.358-1.324,0.358c-0.967,0-1.646-0.752-1.646-2.077v-1.073
			c-1.433,2.112-3.831,3.15-6.766,3.15c-6.372,0-10.202-4.618-10.202-13.245s4.116-13.245,10.882-13.245
			c2.971,0,5.764,1.002,7.696,4.081l-2.792,1.217c-1.109-1.79-2.899-2.721-4.976-2.721c-5.048,0-7.696,4.332-7.696,10.668
			s2.648,10.667,7.731,10.667c3.043,0,6.05-1.718,6.05-5.44v-3.866h-6.3v-2.506H71.966z"/>
		<path fill="#939598" d="M89.653,194.965l1.182,1.897c-2.076,1.324-4.367,1.897-7.088,1.897c-4.904,0-7.84-3.222-7.84-8.663
			c0-6.157,3.222-9.772,8.663-9.772c3.974,0,6.3,2.111,6.3,5.691c0,3.508-2.899,5.584-7.804,5.584c-1.432,0-2.863-0.179-4.26-0.465
			c0.287,3.364,2.041,5.298,5.083,5.298C86.181,196.433,88.078,195.932,89.653,194.965z M78.807,189.273
			c1.433,0.25,2.899,0.357,4.225,0.357c3.149,0,4.976-1.288,4.976-3.544c0-2.147-1.396-3.437-3.795-3.437
			C81.026,182.65,79.021,185.121,78.807,189.273z"/>
		<path fill="#939598" d="M106.91,181.792l-1.182,1.933c-1.503-0.788-3.043-1.217-4.797-1.217c-2.147,0-3.472,0.858-3.472,2.398
			c0,2.004,2.004,2.792,4.331,3.544c2.828,0.931,5.799,2.04,5.799,5.298c0,3.149-2.577,5.012-6.98,5.012
			c-2.756,0-5.047-0.502-6.622-1.719l0.859-1.969c1.468,1.038,3.544,1.468,5.655,1.468c2.649,0,4.188-0.931,4.188-2.613
			s-1.969-2.362-4.152-3.078c-2.792-0.896-5.942-2.077-5.942-5.585c0-3.114,2.435-4.939,6.516-4.939
			C103.295,180.324,105.228,180.789,106.91,181.792z"/>
		<path fill="#939598" d="M115.684,182.937v9.451c0,2.506,1.074,3.974,3.15,3.974c0.967,0,1.861-0.18,2.648-0.609l0.395,2.256
			c-1.074,0.501-2.363,0.752-3.866,0.752c-3.294,0-5.227-2.112-5.227-5.728v-10.096h-2.864v-2.255h2.9v-4.475
			c0.465-0.25,0.931-0.357,1.396-0.357c0.859,0,1.432,0.608,1.432,1.789v3.043h6.229v2.255H115.684z"/>
		<path fill="#939598" d="M138.417,186.731v11.67c-0.466,0.215-0.931,0.358-1.396,0.358c-0.859,0-1.432-0.717-1.432-2.005v-1.539
			c-1.432,2.255-3.866,3.544-6.301,3.544c-3.437,0-5.477-2.005-5.477-5.37c0-3.473,2.792-5.513,7.625-5.513
			c1.36,0,2.756,0.071,4.081,0.179v-0.68c0-3.007-1.396-4.761-4.188-4.761c-1.934,0-3.615,0.501-5.048,1.503l-1.181-1.897
			c1.969-1.324,4.152-1.896,6.693-1.896C135.946,180.324,138.417,182.687,138.417,186.731z M125.673,175.563
			c0.859-1.432,2.506-2.398,4.081-2.398c1.718,0,3.078,1.289,4.582,1.289c0.823,0,1.825-0.322,2.756-1.182l0.859,1.11
			c-1.038,1.539-2.613,2.398-4.188,2.398c-1.682,0-3.042-1.289-4.51-1.289c-0.823,0-1.826,0.322-2.721,1.182L125.673,175.563z
			 M135.518,190.741v-0.681c-1.396-0.144-2.793-0.179-4.046-0.179c-3.042,0-4.832,1.217-4.832,3.329c0,2.04,1.217,3.258,3.329,3.258
			C132.546,196.469,135.518,194.499,135.518,190.741z"/>
		<path fill="#939598" d="M142.751,189.523c0-5.763,3.222-9.199,8.663-9.199s8.663,3.437,8.663,9.199c0,5.8-3.222,9.236-8.663,9.236
			S142.751,195.323,142.751,189.523z M157.142,189.523c0-4.26-2.112-6.837-5.691-6.837c-3.616,0-5.728,2.577-5.728,6.837
			c0,4.296,2.111,6.838,5.728,6.838C155.029,196.361,157.142,193.819,157.142,189.523z"/>
		<path fill="#939598" d="M189.542,189.345c0,5.906-3.437,9.415-9.236,9.415c-1.146,0-2.648-0.036-4.188-0.144v8.019h-2.899v-25.953
			c0.465-0.25,0.931-0.357,1.396-0.357c0.859,0,1.432,0.68,1.432,2.004v1.504c1.433-2.255,3.938-3.508,6.479-3.508
			C186.965,180.324,189.542,183.653,189.542,189.345z M186.57,189.345c0-4.188-1.718-6.658-4.939-6.658
			c-2.577,0-5.513,1.933-5.513,5.656v7.982c1.396,0.107,2.828,0.144,4.045,0.144C184.172,196.469,186.57,193.819,186.57,189.345z"/>
		<path fill="#939598" d="M207.014,186.731v11.67c-0.466,0.215-0.931,0.358-1.396,0.358c-0.859,0-1.432-0.717-1.432-2.005v-1.539
			c-1.432,2.255-3.866,3.544-6.301,3.544c-3.437,0-5.477-2.005-5.477-5.37c0-3.473,2.792-5.513,7.625-5.513
			c1.36,0,2.756,0.071,4.081,0.179v-0.68c0-3.007-1.396-4.761-4.188-4.761c-1.934,0-3.615,0.501-5.048,1.503l-1.181-1.897
			c1.969-1.324,4.152-1.896,6.693-1.896C204.543,180.324,207.014,182.687,207.014,186.731z M204.114,190.741v-0.681
			c-1.396-0.144-2.793-0.179-4.046-0.179c-3.042,0-4.832,1.217-4.832,3.329c0,2.04,1.217,3.258,3.329,3.258
			C201.143,196.469,204.114,194.499,204.114,190.741z"/>
		<path fill="#939598" d="M223.733,180.86l-0.859,2.757c-0.608-0.394-1.432-0.645-2.291-0.645c-3.078,0-5.333,2.327-5.333,6.802
			v8.627h-2.899v-17.72c0.465-0.25,0.931-0.357,1.396-0.357c0.859,0,1.432,0.68,1.432,2.004v1.969
			c1.253-2.541,3.437-3.973,6.086-3.973C222.23,180.324,223.089,180.503,223.733,180.86z"/>
		<path fill="#939598" d="M239.416,186.731v11.67c-0.466,0.215-0.931,0.358-1.396,0.358c-0.859,0-1.432-0.717-1.432-2.005v-1.539
			c-1.432,2.255-3.866,3.544-6.301,3.544c-3.437,0-5.477-2.005-5.477-5.37c0-3.473,2.792-5.513,7.625-5.513
			c1.36,0,2.756,0.071,4.081,0.179v-0.68c0-3.007-1.396-4.761-4.188-4.761c-1.934,0-3.615,0.501-5.048,1.503l-1.181-1.897
			c1.969-1.324,4.152-1.896,6.693-1.896C236.945,180.324,239.416,182.687,239.416,186.731z M236.517,190.741v-0.681
			c-1.396-0.144-2.793-0.179-4.046-0.179c-3.042,0-4.832,1.217-4.832,3.329c0,2.04,1.217,3.258,3.329,3.258
			C233.545,196.469,236.517,194.499,236.517,190.741z"/>
		<path fill="#939598" d="M252.378,189.523c0-5.763,3.222-9.199,8.663-9.199s8.663,3.437,8.663,9.199c0,5.8-3.222,9.236-8.663,9.236
			S252.378,195.323,252.378,189.523z M266.769,189.523c0-4.26-2.112-6.837-5.691-6.837c-3.616,0-5.728,2.577-5.728,6.837
			c0,4.296,2.111,6.838,5.728,6.838C264.656,196.361,266.769,193.819,266.769,189.523z"/>
		<path fill="#939598" d="M301.567,172.807l-9.129,25.595h-3.364l-9.129-25.595c0.358-0.322,0.967-0.537,1.611-0.537
			c0.859,0,1.61,0.286,2.076,1.61l6.121,18.078l1.218,3.687l1.146-3.794l6.515-19.581L301.567,172.807z"/>
		<path fill="#939598" d="M316.247,186.731v11.67c-0.466,0.215-0.931,0.358-1.396,0.358c-0.859,0-1.432-0.717-1.432-2.005v-1.539
			c-1.432,2.255-3.866,3.544-6.301,3.544c-3.437,0-5.477-2.005-5.477-5.37c0-3.473,2.792-5.513,7.625-5.513
			c1.36,0,2.756,0.071,4.081,0.179v-0.68c0-3.007-1.396-4.761-4.188-4.761c-1.934,0-3.615,0.501-5.048,1.503l-1.181-1.897
			c1.969-1.324,4.152-1.896,6.693-1.896C313.776,180.324,316.247,182.687,316.247,186.731z M313.348,190.741v-0.681
			c-1.396-0.144-2.793-0.179-4.046-0.179c-3.042,0-4.832,1.217-4.832,3.329c0,2.04,1.217,3.258,3.329,3.258
			C310.376,196.469,313.348,194.499,313.348,190.741z"/>
		<path fill="#939598" d="M332.967,180.86l-0.859,2.757c-0.608-0.394-1.432-0.645-2.291-0.645c-3.078,0-5.333,2.327-5.333,6.802
			v8.627h-2.899v-17.72c0.465-0.25,0.931-0.357,1.396-0.357c0.859,0,1.432,0.68,1.432,2.004v1.969
			c1.253-2.541,3.437-3.973,6.086-3.973C331.464,180.324,332.322,180.503,332.967,180.86z"/>
		<path fill="#939598" d="M348.039,194.965l1.182,1.897c-2.076,1.324-4.367,1.897-7.088,1.897c-4.904,0-7.84-3.222-7.84-8.663
			c0-6.157,3.222-9.772,8.663-9.772c3.974,0,6.3,2.111,6.3,5.691c0,3.508-2.899,5.584-7.804,5.584c-1.432,0-2.863-0.179-4.26-0.465
			c0.287,3.364,2.041,5.298,5.084,5.298C344.567,196.433,346.464,195.932,348.039,194.965z M337.192,189.273
			c1.433,0.25,2.899,0.357,4.225,0.357c3.15,0,4.976-1.288,4.976-3.544c0-2.147-1.396-3.437-3.795-3.437
			C339.412,182.65,337.407,185.121,337.192,189.273z"/>
		<path fill="#939598" d="M353.196,206.993l-1.324-2.148c1.181-0.608,1.897-1.969,1.897-4.224v-19.939h2.899v20.583
			C356.669,204.344,355.309,206.098,353.196,206.993z M355.201,177.066c1.146,0,1.825-0.645,1.825-1.719
			c0-1.109-0.68-1.754-1.825-1.754c-1.11,0-1.79,0.645-1.79,1.754C353.411,176.422,354.091,177.066,355.201,177.066z"/>
		<path fill="#939598" d="M361.18,189.523c0-5.763,3.222-9.199,8.663-9.199s8.663,3.437,8.663,9.199c0,5.8-3.222,9.236-8.663,9.236
			S361.18,195.323,361.18,189.523z M375.57,189.523c0-4.26-2.112-6.837-5.691-6.837c-3.616,0-5.728,2.577-5.728,6.837
			c0,4.296,2.111,6.838,5.728,6.838C373.458,196.361,375.57,193.819,375.57,189.523z"/>
	</g>
</g>
</svg>
